<?xml version="1.0" encoding="UTF-8" standalone="no"?>
<!-- Created with Inkscape (http://www.inkscape.org/) -->

<svg
   xmlns:dc="http://purl.org/dc/elements/1.1/"
   xmlns:cc="http://creativecommons.org/ns#"
   xmlns:rdf="http://www.w3.org/1999/02/22-rdf-syntax-ns#"
   xmlns:svg="http://www.w3.org/2000/svg"
   xmlns="http://www.w3.org/2000/svg"
   xmlns:sodipodi="http://sodipodi.sourceforge.net/DTD/sodipodi-0.dtd"
   xmlns:inkscape="http://www.inkscape.org/namespaces/inkscape"
   width="192"
   height="192"
   viewBox="0 0 192 192"
   id="svg2"
   version="1.1"
   inkscape:version="0.91 r13725"
   enable-background="new"
   sodipodi:docname="logo.svg">
  <defs
     id="defs4" />
  <sodipodi:namedview
     id="base"
     pagecolor="#ffffff"
     bordercolor="#666666"
     borderopacity="1.0"
     inkscape:pageopacity="0.0"
     inkscape:pageshadow="2"
     inkscape:zoom="2.8"
     inkscape:cx="139.98543"
     inkscape:cy="107.25794"
     inkscape:document-units="px"
     inkscape:current-layer="layer2"
     showgrid="false"
     units="px"
     inkscape:window-width="1600"
     inkscape:window-height="836"
     inkscape:window-x="0"
     inkscape:window-y="0"
     inkscape:window-maximized="1" />
  <metadata
     id="metadata7">
    <rdf:RDF>
      <cc:Work
         rdf:about="">
        <dc:format>image/svg+xml</dc:format>
        <dc:type
           rdf:resource="http://purl.org/dc/dcmitype/StillImage" />
        <dc:title></dc:title>
        <cc:license
           rdf:resource="" />
      </cc:Work>
    </rdf:RDF>
  </metadata>
  <g
     inkscape:groupmode="layer"
     id="layer2"
     inkscape:label="Layer 1"
     style="display:inline">
    <path
       style="fill:#ffffff;fill-opacity:1;fill-rule:evenodd;stroke:#000000;stroke-width:4;stroke-linecap:round;stroke-linejoin:miter;stroke-miterlimit:4;stroke-dasharray:none;stroke-opacity:1"
       d="M 68.942911,62.700474 C 87.630733,35.931432 65.626905,33.75809 60.609152,38.961889 49.961255,50.004587 44.464301,51.586302 28.381548,50.021687 21.739993,49.375562 21.245002,39.440467 27.274119,34.416203 33.287982,29.40465 46.181277,25.563123 53.245926,19.909023 64.050979,11.26134 68.136224,3.1074581 50.760166,2.5963976 33.587572,2.0913214 17.90714,9.4936373 13.637059,20.779144 c -3.625338,9.581502 -24.805169,30.011272 4.545687,39.395949 21.082077,6.740808 29.812066,-5.583084 38.890873,-6.060916 14.394674,-0.757614 -5.555839,6.565992 0,16.667517"
       id="path3456"
       inkscape:connector-curvature="0"
       sodipodi:nodetypes="cssssssssc" />
    <path
       style="fill:#ffffff;fill-opacity:1;fill-rule:evenodd;stroke:#000000;stroke-width:4;stroke-linecap:round;stroke-linejoin:miter;stroke-miterlimit:4;stroke-dasharray:none;stroke-opacity:1"
       d="m 70.963216,129.87562 c -21.718279,51.77032 -0.09942,71.25429 2.272844,51.0127 1.695143,-14.46396 4.511349,-35.10191 6.966463,-45.84247"
       id="path4276"
       inkscape:connector-curvature="0"
       sodipodi:nodetypes="csc" />
    <path
       style="fill:#ffffff;fill-rule:evenodd;stroke:#000000;stroke-width:4;stroke-linecap:butt;stroke-linejoin:miter;stroke-opacity:1;stroke-miterlimit:4;stroke-dasharray:none;fill-opacity:1"
       d="m 54.548237,101.08627 c -59.5989993,-4.798221 -43.655982,32.08371 2.020306,9.59645"
       id="path4270"
       inkscape:connector-curvature="0"
       sodipodi:nodetypes="cc" />
    <path
       style="fill:#ffffff;fill-opacity:1;fill-rule:evenodd;stroke:#000000;stroke-width:4;stroke-linecap:round;stroke-linejoin:miter;stroke-miterlimit:4;stroke-dasharray:none;stroke-opacity:1"
       d="M 97.984797,63.710627 C 83.085047,15.475843 131.14126,27.822653 107.65522,67.723678"
       id="path4274"
       inkscape:connector-curvature="0"
       sodipodi:nodetypes="cc" />
    <path
       style="fill:#008108;fill-rule:evenodd;stroke:#000000;stroke-width:4;stroke-linecap:round;stroke-linejoin:miter;stroke-opacity:1;stroke-miterlimit:4;stroke-dasharray:none;fill-opacity:1"
       d="m 54.043161,81.893373 c -0.701225,16.979637 1.847409,31.149147 8.597089,39.807057 14.970204,19.20249 44.66755,18.22082 63.37628,9.69042 16.26263,-7.41508 24.14812,-34.976684 -12.6269,-61.114232 C 107.46114,66.062994 55.486974,46.93252 54.043161,81.893373 Z"
       id="path3464"
       inkscape:connector-curvature="0"
       sodipodi:nodetypes="sssss" />
    <path
       style="fill:#ffffff;fill-rule:evenodd;stroke:#000000;stroke-width:4;stroke-linecap:round;stroke-linejoin:miter;stroke-opacity:1;stroke-miterlimit:4;stroke-dasharray:none;fill-opacity:1"
       d="m 126.01653,79.873068 c 23.65794,-17.548481 50.07114,-8.80306 44.91774,-2.885568 -8.13174,9.33742 -17.24021,7.027219 -40.37205,8.188869"
       id="path4272"
       inkscape:connector-curvature="0"
       sodipodi:nodetypes="csc" />
    <path
       style="fill:none;fill-rule:evenodd;stroke:#000000;stroke-width:5;stroke-linecap:round;stroke-linejoin:miter;stroke-miterlimit:4;stroke-dasharray:none;stroke-opacity:1"
       d="m 36.870568,11.68777 c 0,0 4.293148,-5.0507622 11.616754,-4.0406097"
       id="path4278"
       inkscape:connector-curvature="0"
       sodipodi:nodetypes="cc" />
    <path
       style="fill:none;fill-rule:evenodd;stroke:#000000;stroke-width:5;stroke-linecap:round;stroke-linejoin:miter;stroke-opacity:1;stroke-miterlimit:4;stroke-dasharray:none"
       d="m 43.436559,15.980919 c 14.394674,0.505076 15.152289,-2.020305 15.152289,-2.020305"
       id="path4280"
       inkscape:connector-curvature="0" />
    <path
       style="fill:#ffffff;fill-opacity:1;fill-rule:evenodd;stroke:#000000;stroke-width:4;stroke-linecap:round;stroke-linejoin:miter;stroke-miterlimit:4;stroke-dasharray:none;stroke-opacity:1"
       d="m 188.39345,169.01903 c -2.56806,18.29742 -19.1929,19.44544 -16.16244,9.59645 3.03046,-9.84898 13.13198,-13.63706 5.80838,-22.72843 -4.77885,-5.93237 -9.02269,-2.32808 -12.28344,-0.19167 -18.06437,11.83555 -12.96055,-9.72385 -12.96055,-9.72385 20.24924,-7.73678 37.61836,8.65282 35.59805,23.0475 z"
       id="path4284"
       inkscape:connector-curvature="0"
       sodipodi:nodetypes="sssscs" />
    <path
       style="fill:none;fill-rule:evenodd;stroke:#000000;stroke-width:4;stroke-linecap:round;stroke-linejoin:miter;stroke-opacity:1;stroke-miterlimit:4;stroke-dasharray:none"
       d="M 100.0051,66.236008 C 94.196725,87.196673 71.973369,87.449211 54.548238,85.428906"
       id="path4288"
       inkscape:connector-curvature="0" />
    <path
       style="fill:none;fill-rule:evenodd;stroke:#000000;stroke-width:4;stroke-linecap:round;stroke-linejoin:miter;stroke-opacity:1;stroke-miterlimit:4;stroke-dasharray:none"
       d="m 97.984797,71.791847 c 7.010173,7.426711 7.625693,14.775234 11.302913,19.13819 4.60517,5.463957 0.85132,21.929793 2.33415,44.753953"
       id="path4290"
       inkscape:connector-curvature="0"
       sodipodi:nodetypes="csc" />
    <path
       style="fill:none;fill-rule:evenodd;stroke:#000000;stroke-width:4;stroke-linecap:round;stroke-linejoin:miter;stroke-opacity:1;stroke-miterlimit:4;stroke-dasharray:none"
       d="m 134.60283,98.813428 c -18.94037,-4.293149 -19.95052,5.303302 -29.29443,5.555842 -9.343908,0.25253 -13.889595,5.05076 -20.455586,-3.283 -6.565992,-8.333758 -3.788072,-16.667516 -3.788072,-16.667516"
       id="path4292"
       inkscape:connector-curvature="0"
       sodipodi:nodetypes="cssc" />
    <path
       style="fill:none;fill-rule:evenodd;stroke:#000000;stroke-width:4;stroke-linecap:round;stroke-linejoin:miter;stroke-opacity:1;stroke-miterlimit:4;stroke-dasharray:none"
       d="m 86.115505,102.6015 c 5.3033,18.94036 -3.282996,31.8198 -3.282996,31.8198"
       id="path4294"
       inkscape:connector-curvature="0" />
    <path
       style="fill:#ffffff;fill-opacity:1;fill-rule:nonzero;stroke:#000000;stroke-width:4;stroke-linecap:round;stroke-linejoin:miter;stroke-miterlimit:4;stroke-dasharray:none;stroke-opacity:1"
       d="m 138.42153,120.60304 c 25.50635,4.04061 18.13397,16.7774 15.12166,25.18248 -3.22172,8.98939 0.19126,18.21819 13.38452,9.34391 15.45528,-10.39581 1.76777,-26.76904 -2.77792,-27.27412 -4.54569,-0.50507 -10.10153,16.16244 -16.66752,18.94036 -6.56599,2.77792 -23.23351,-2.77792 -8.58629,-16.92005 14.64721,-14.14214 31.56726,-16.41498 37.88072,-6.31346 6.31345,10.10153 -1.34718,15.78953 -6.1454,22.60806 -4.79823,6.81853 -12.53979,12.75734 -12.53979,12.75734"
       id="path4282"
       inkscape:connector-curvature="0"
       sodipodi:nodetypes="csssssssc" />
    <path
       style="fill:none;fill-rule:evenodd;stroke:#000000;stroke-width:4;stroke-linecap:round;stroke-linejoin:miter;stroke-miterlimit:4;stroke-dasharray:none;stroke-opacity:1"
       d="m 138.05651,122.38087 c 8.83883,9.59645 13.97145,21.38435 -1.68592,22.3945"
       id="path4286"
       inkscape:connector-curvature="0"
       sodipodi:nodetypes="cc" />
  </g>
</svg>
